<svg id="Capa_1" data-name="Capa 1" xmlns="http://www.w3.org/2000/svg" xmlns:xlink="http://www.w3.org/1999/xlink" viewBox="0 0 320 568"><defs><style>.cls-1{fill:#c5c5c4;}.cls-2{mask:url(#mask);}.cls-3{fill:#e55866;}.cls-3,.cls-5,.cls-6,.cls-7,.cls-8,.cls-9{fill-rule:evenodd;}.cls-4{fill:none;}.cls-5{fill:#9cd4d8;}.cls-6{fill:#fbd3c5;}.cls-7{fill:url(#Degradado_sin_nombre_3);}.cls-8{fill:url(#Degradado_sin_nombre_3-2);}.cls-9{fill:#1d538c;}.cls-10{fill:#1a2236;}</style><mask id="mask" x="-0.08" y="448.56" width="479.45" height="199.74" maskUnits="userSpaceOnUse"><g id="mask0"><rect class="cls-1" x="-0.08" y="488.61" width="320" height="80"/></g></mask><linearGradient id="Degradado_sin_nombre_3" x1="73.94" y1="7.45" x2="153.33" y2="86.85" gradientTransform="matrix(1, 0, 0, -1, 0, 570)" gradientUnits="userSpaceOnUse"><stop offset="0" stop-color="#fcc461"/><stop offset="1" stop-color="#fcd06e"/></linearGradient><linearGradient id="Degradado_sin_nombre_3-2" x1="141.8" y1="-42.54" x2="268.65" y2="20.86" xlink:href="#Degradado_sin_nombre_3"/></defs><title>menu-bg</title><g class="cls-2"><path class="cls-3" d="M319.54,528.4a40,40,0,0,0-40-40h-40v80h40A40,40,0,0,0,319.54,528.4Z"/><path class="cls-4" d="M319.54,528.4a40,40,0,0,0-40-40h-40v80h40A40,40,0,0,0,319.54,528.4Z"/><path class="cls-5" d="M299.86,528.58a20,20,0,0,0-20-20h-20v20a20,20,0,0,0,39.94,0Z"/><path class="cls-4" d="M299.86,528.58a20,20,0,0,0-20-20h-20v20a20,20,0,0,0,39.94,0Z"/><path class="cls-6" d="M299.86,528.58a20,20,0,0,0-20-20h-20v20a20,20,0,0,0,39.94,0Z"/><path class="cls-5" d="M399.49,488.71c-44.11,0-79.87,35.59-79.87,79.49H479.37C479.37,524.3,443.61,488.71,399.49,488.71Z"/><path class="cls-4" d="M399.49,488.71c-44.11,0-79.87,35.59-79.87,79.49H479.37C479.37,524.3,443.61,488.71,399.49,488.71Z"/><path class="cls-3" d="M39.86,528.46l39.93-40L39.86,448.56-.08,488.51Z"/><path class="cls-4" d="M39.86,528.46l39.93-40L39.86,448.56-.08,488.51Z"/><path class="cls-7" d="M159.79,528.4a40,40,0,0,0-40-40h-40v80h40A40,40,0,0,0,159.79,528.4Z"/><path class="cls-4" d="M159.79,528.4a40,40,0,0,0-40-40h-40v80h40A40,40,0,0,0,159.79,528.4Z"/><path class="cls-8" d="M159.67,568.4a79.88,79.88,0,0,0,79.87,79.9V488.51A79.88,79.88,0,0,0,159.67,568.4Z"/><path class="cls-4" d="M159.67,568.4a79.88,79.88,0,0,0,79.87,79.9V488.51A79.88,79.88,0,0,0,159.67,568.4Z"/><path class="cls-5" d="M-.08,568.4h80v-80Z"/><path class="cls-4" d="M-.08,568.4h80v-80Z"/><path class="cls-3" d="M139.7,528.46a20,20,0,0,0-20-20h-20v20a20,20,0,0,0,39.94,0Z"/><path class="cls-4" d="M139.7,528.46a20,20,0,0,0-20-20h-20v20a20,20,0,0,0,39.94,0Z"/><path class="cls-9" d="M139.7,528.46a20,20,0,0,0-20-20h-20v20a20,20,0,0,0,39.94,0Z"/></g><circle class="cls-10" cx="56.77" cy="417.46" r="0.85"/><circle class="cls-10" cx="56.77" cy="430.23" r="0.85"/><circle class="cls-10" cx="56.77" cy="442.99" r="0.85"/><circle class="cls-10" cx="56.77" cy="455.75" r="0.85"/><circle class="cls-10" cx="69.54" cy="417.46" r="0.85"/><circle class="cls-10" cx="69.54" cy="430.23" r="0.85"/><circle class="cls-10" cx="69.54" cy="442.99" r="0.85"/><circle class="cls-10" cx="69.54" cy="455.75" r="0.85"/><circle class="cls-10" cx="82.3" cy="417.46" r="0.85"/><circle class="cls-10" cx="82.3" cy="430.23" r="0.85"/><circle class="cls-10" cx="82.3" cy="442.99" r="0.85"/><circle class="cls-10" cx="82.3" cy="455.75" r="0.85"/><circle class="cls-10" cx="95.07" cy="417.46" r="0.85"/><circle class="cls-10" cx="95.07" cy="430.23" r="0.85"/><circle class="cls-10" cx="95.07" cy="442.99" r="0.85"/><circle class="cls-10" cx="95.07" cy="455.75" r="0.85"/><circle class="cls-10" cx="223.7" cy="74.91" r="0.85"/><circle class="cls-10" cx="223.7" cy="87.67" r="0.85"/><circle class="cls-10" cx="223.7" cy="100.44" r="0.85"/><circle class="cls-10" cx="223.7" cy="113.2" r="0.85"/><circle class="cls-10" cx="236.47" cy="74.91" r="0.85"/><circle class="cls-10" cx="236.47" cy="87.67" r="0.85"/><circle class="cls-10" cx="236.47" cy="100.44" r="0.85"/><circle class="cls-10" cx="236.47" cy="113.2" r="0.85"/><circle class="cls-10" cx="249.23" cy="74.91" r="0.85"/><circle class="cls-10" cx="249.23" cy="87.67" r="0.85"/><circle class="cls-10" cx="249.23" cy="100.44" r="0.85"/><circle class="cls-10" cx="249.23" cy="113.2" r="0.85"/><circle class="cls-10" cx="262" cy="74.91" r="0.85"/><circle class="cls-10" cx="262" cy="87.67" r="0.85"/><circle class="cls-10" cx="262" cy="100.44" r="0.85"/><circle class="cls-10" cx="262" cy="113.2" r="0.85"/><path class="cls-3" d="M110.85,37.06l-37,37-37-37,37-37Z"/><path class="cls-4" d="M110.85,37.06l-37,37-37-37,37-37Z"/><path class="cls-6" d="M110.85,37.06l-37,37-37-37,37-37Z"/><path class="cls-5" d="M-.15,74.06V.06h74Z"/><path class="cls-4" d="M-.15,74.06V.06h74Z"/><path class="cls-9" d="M-.15,74.06V.06h74Z"/></svg>